<svg width="120" height="50" viewBox="0 0 120 50" fill="none" xmlns="http://www.w3.org/2000/svg">
<path d="M118.975 23.8989C118.575 23.4985 118.014 23.3793 117.454 23.5382C116.253 23.8989 115.533 25.4197 114.972 26.7005C114.851 26.9801 114.732 27.3012 114.611 27.5411C114.451 27.6619 114.251 27.9019 113.931 28.2626C112.53 29.8231 109.288 33.5066 107.847 33.5066C107.607 33.5066 107.446 33.4272 107.367 33.2667C106.927 32.4658 108.408 29.6642 110.009 27.2615C110.129 27.1009 110.249 26.9404 110.37 26.7816C111.011 25.9409 111.572 25.2211 110.57 24.0594C110.21 23.6193 109.65 23.3793 109.21 23.3396H109.17C108.81 23.3396 108.53 23.4604 108.29 23.7003C108.05 23.9403 107.89 24.5013 107.769 24.9017C107.769 24.9812 107.729 25.0622 107.729 25.1417C107.289 26.1031 104.928 30.5859 104.928 30.5859C104.327 31.9065 103.365 33.9088 103.847 35.3087C104.247 36.3893 104.967 37.0694 106.409 37.0694C108.29 37.0694 109.932 35.7489 111.012 34.5872C111.092 34.5078 111.173 34.4267 111.252 34.387C108.81 39.3514 108.33 40.9118 106.529 46.1956C106.169 46.836 105.968 47.397 105.889 47.958C105.849 48.5586 106.01 49.0782 106.329 49.439C106.69 49.7997 107.17 50 107.771 50C109.291 50 109.773 48.6397 109.973 47.5575C110.052 47.0776 110.092 46.5977 110.173 46.0765C110.213 45.5966 110.253 45.115 110.334 44.6748C110.853 42.7536 113.576 35.1482 116.097 30.3443C116.218 30.2235 118.34 27.3028 118.459 27.182C118.859 26.6624 119.26 26.1015 119.42 25.5008C119.534 24.8984 119.374 24.2994 118.975 23.8989Z" fill="#FF102A"/>
<path d="M44.8385 34.9858C42.3961 37.1469 40.6751 36.1474 40.6354 33.6652C40.5957 31.9443 41.4363 29.141 42.7171 26.6191C43.1176 25.7785 43.4369 25.0984 43.4783 24.7376C43.6785 24.0972 42.6377 22.8959 42.1181 22.6956C40.7975 22.1347 39.9569 23.6571 39.156 25.1381C39.156 25.1381 38.595 26.2998 38.3551 26.8194C35.1133 33.9449 31.9907 35.7056 31.1898 35.2654C30.7894 35.0652 31.0293 32.5433 33.2716 27.2993C33.3924 27.0196 33.4718 26.7383 33.5926 26.4983C34.0725 25.4178 34.4729 24.5358 33.5926 23.1358C33.0316 22.2952 32.5517 21.9344 32.1115 21.9741C31.3917 22.0139 30.8307 23.3757 30.5097 24.2164C29.5896 26.6986 29.1495 28.0588 28.4677 30.7412C27.9481 32.6624 27.5873 34.7839 27.867 36.025C28.3072 38.1464 30.2284 38.4675 31.309 38.3864C33.2302 38.3864 36.0731 36.2252 37.4747 34.1832C37.4747 34.7442 37.5144 35.2638 37.6352 35.785C37.9563 37.2264 39.1163 38.2672 40.5179 38.4277C42.2389 38.5883 43.1192 38.2672 44.0409 37.5077C45.4392 36.3079 46.1591 33.786 44.8385 34.9858Z" fill="#FF102A"/>
<path d="M68.577 22.9772C68.577 22.9772 64.6138 23.5382 62.8531 23.5382C62.5321 23.5382 62.3319 23.2171 62.4129 22.8978C62.7323 22.0968 63.1328 21.2959 63.5332 20.5364C64.0131 19.6163 64.5344 18.6549 64.8538 17.5743C65.0143 17.0547 65.3734 16.0138 64.7743 15.0127C64.5344 14.6916 64.2134 14.4517 63.7732 14.3723C62.9723 14.2515 62.2921 14.6122 61.6914 15.4926C60.8905 16.6939 60.4504 18.0145 59.9308 20.0565C59.5303 21.698 59.1298 23.2188 58.6102 24.1388C58.41 24.4599 58.17 24.4996 57.8093 24.579C57.4486 24.6187 57.0481 24.6998 56.6079 25.0589C55.9278 25.6199 55.8467 26.2603 55.8467 26.8213C55.8467 27.3806 56.0072 27.8621 56.2472 28.5025C56.3266 28.7425 56.4474 28.903 56.4871 29.1032C56.7668 29.6228 56.967 29.8644 56.6874 30.5843C56.4077 31.2644 56.2075 31.5457 55.9278 32.2655C55.6879 32.9457 55.4479 33.4669 55.2477 34.1867C55.0077 35.1482 54.9267 36.9089 55.6481 37.8703C55.9692 38.3105 56.4888 38.5107 57.0895 38.5107C58.6499 38.5107 59.1712 36.108 59.4509 34.8272V34.7874C59.6908 33.5463 59.7719 32.7057 59.8513 31.3852C59.9307 30.2235 60.1723 28.1832 61.612 27.503C65.4544 25.701 67.9764 25.1417 69.0569 24.4599C69.8181 24.018 69.4177 22.8978 68.577 22.9772Z" fill="#FF102A"/>
<path d="M25.1434 35.707C23.8229 35.9866 23.022 36.0677 22.4213 35.9469C21.8603 35.8261 21.3804 35.4273 21.1008 35.0666C19.9805 33.3456 21.301 29.2218 21.862 27.9013C21.9414 27.7011 22.0622 27.4611 22.183 27.1798C22.744 25.9784 23.5432 24.2972 22.8631 23.3771C22.5024 22.8575 22.1019 22.6159 21.7428 22.5762C20.9816 22.4554 19.901 23.5773 19.901 23.5773C18.6997 24.6579 17.2186 26.6188 16.0189 28.2207C15.1385 29.341 14.1771 30.6218 13.8974 30.7823C13.818 30.4613 14.1374 29.101 14.3773 28.0999C14.5379 27.3387 14.8175 25.899 14.8175 25.899C14.9383 25.4191 15.2974 23.8967 14.5776 23.2166C14.2963 22.9767 13.9769 22.8559 13.5764 22.8956C11.8951 22.975 9.53376 25.7385 7.85249 27.7391C7.13266 28.5798 6.37145 29.4601 6.13151 29.5412H6.01071C5.85019 29.3807 6.33174 28.1396 6.69083 27.2195C7.2518 25.7782 7.89221 24.0969 7.65226 23.2563C7.29152 22.2154 6.6114 22.0549 6.21094 22.0549C5.2495 22.0946 4.20864 22.975 3.88926 24.0572C3.64932 24.7771 3.4888 25.4986 3.32829 26.1787C3.16777 26.9002 2.68788 29.3013 0.405925 35.1063C0.405925 35.1063 -0.274195 36.9878 0.126265 37.749C0.28678 38.07 0.606155 38.2686 1.00661 38.3894C2.48765 38.7501 4.28807 36.3871 5.57053 34.6264C5.69133 34.4659 5.85019 34.2656 5.97099 34.1068C6.21094 33.7858 6.45088 33.4267 6.7322 33.1056C7.69363 31.8248 8.69313 30.5043 9.81507 29.3824C10.6557 28.5417 10.7765 28.6211 10.8957 28.7419C11.0562 28.9025 10.6954 30.1022 10.4555 31.0239C9.8945 32.9848 9.17467 35.3876 10.0153 36.3474C10.3363 36.7081 10.8162 36.8273 11.4963 36.7478C13.6972 36.3474 17.4205 31.1033 17.5016 30.9842C17.3411 32.4652 17.2219 35.2668 18.6632 36.9894C18.8238 37.1897 18.9843 37.3502 19.1829 37.509C19.7025 37.9095 20.3445 38.1892 21.0644 38.31C21.1852 38.31 21.3043 38.3497 21.4251 38.3497C22.2657 38.4291 23.1461 38.2289 23.947 37.8301C25.7044 36.9481 26.9455 35.2668 25.1434 35.707Z" fill="#FF102A"/>
<path d="M55.2061 14.4112C54.9265 14.0505 54.4449 13.8916 53.8459 13.8916C52.0041 13.9313 51.645 15.3726 51.5242 16.4532C51.2843 18.6541 50.6439 20.2559 49.9224 22.3377C49.6824 23.0989 47.3608 29.263 46.9603 32.465C46.8395 33.4661 46.9206 34.7072 47.2002 35.3476C47.8407 37.0289 48.8815 38.3494 49.9621 38.3892C50.3228 38.4289 50.5231 38.3494 50.6819 38.1889C50.9632 37.8679 50.8027 37.2689 50.6025 36.4679C50.3626 35.5065 50.0415 34.1463 50.3212 32.7049C50.7216 30.5041 51.2826 28.5415 52.163 26.1007C52.5237 25.1392 52.9242 24.2192 53.2833 23.2577C55.2045 18.2139 55.2442 17.5735 55.2856 17.3733C55.5669 16.0511 55.9673 15.2916 55.2061 14.4112Z" fill="#FF102A"/>
<path d="M91.0734 21.1764C88.712 21.2972 86.2695 23.0977 85.1095 24.8186C84.949 24.1385 84.5899 23.657 84.1084 23.4584C83.5474 23.2582 82.907 23.4981 82.3477 24.0988C81.0271 25.6593 80.4265 28.1017 79.8655 30.2629L78.8246 33.9051C78.8246 33.9051 77.3833 39.7101 75.141 46.1936C74.82 47.0739 74.221 47.7541 74.3798 48.5153C74.6198 49.4353 75.381 49.9963 76.3821 49.9963C78.1428 49.9963 78.3431 48.3548 78.5036 47.1534C78.6641 46.0331 79.1043 44.1119 79.3839 43.2299C81.5865 36.3046 82.4254 34.0623 82.4254 34.0623C83.6665 30.6601 85.227 26.4172 88.5498 24.5754C89.4699 24.0558 90.3916 23.935 91.032 24.2957C91.6327 24.6168 91.9935 25.3366 92.0729 26.4172C92.2334 28.019 90.7921 31.0605 88.9106 33.1422C87.7886 34.3833 87.1085 34.8632 86.3092 34.8632C86.0279 34.8632 85.9882 34.7838 85.9485 34.5025C85.8674 34.1815 85.788 33.7413 85.1079 33.6618C84.1067 33.541 83.1866 34.7424 82.9864 35.4225C82.7862 36.1838 82.8656 36.8242 83.2264 37.304C83.9065 38.1447 85.2287 38.2241 85.7483 38.2241C88.7103 38.2241 92.1126 35.5417 94.1943 31.739C95.2352 29.8575 96.6368 26.1756 94.5551 22.8925C93.7558 21.696 92.5147 21.0954 91.0734 21.1764Z" fill="#FF102A"/>
<path d="M76.3821 34.5456C75.4621 35.3863 71.0984 37.3886 71.378 33.3856C71.4177 32.545 71.8182 31.7441 72.179 30.9829C72.9402 29.3016 73.8205 27.6601 74.6611 26.0185C74.8614 25.618 75.1013 25.2176 75.2618 24.8171C75.4621 24.2975 75.3413 23.7763 74.9011 23.4569C74.5801 23.1772 74.1796 22.8976 73.7791 22.7768C72.7383 22.4971 72.3378 22.737 71.8976 23.4569C70.1766 26.5398 68.775 29.7021 68.1346 33.1837C67.9741 33.945 68.0138 34.7045 68.2157 35.4657C68.6956 37.3869 70.5374 38.7074 72.4983 38.5072C73.8586 38.3467 74.7803 37.6666 75.3015 37.2661C76.9034 35.9473 77.9029 33.2251 76.3821 34.5456Z" fill="#FF102A"/>
<path d="M76.5033 20.6945H76.7432C77.9446 20.6945 78.2243 20.1336 78.825 19.1341C78.9458 18.9736 79.0252 18.7733 79.146 18.6145C80.1074 17.1334 81.0275 15.5316 80.5873 14.772C80.4268 14.4924 80.1471 14.3716 79.707 14.3716H79.6673C78.3865 14.4113 76.5447 16.1737 76.0251 16.6933C75.2241 17.4545 74.3438 18.3745 74.5837 19.2549C74.7012 19.9747 75.9026 20.6151 76.5033 20.6945Z" fill="#FF102A"/>
<path d="M105.364 14.4112C105.043 14.0505 104.605 13.8916 103.964 13.8916C102.123 13.9313 101.762 15.3726 101.643 16.4532C101.403 18.6541 100.762 20.2559 100.041 22.3377C99.801 23.0989 97.4793 29.263 97.0788 32.465C96.9597 33.4661 97.0391 34.7072 97.3188 35.3476C97.9592 37.0289 99.0001 38.3494 100.081 38.3892C100.441 38.4289 100.642 38.3494 100.8 38.1889C101.08 37.8679 100.921 37.2689 100.721 36.4679C100.481 35.5065 100.16 34.1463 100.441 32.7049C100.842 30.5041 101.403 28.5415 102.283 26.1007C102.644 25.1392 103.043 24.2192 103.403 23.2577C105.325 18.2139 105.364 17.5735 105.406 17.3733C105.685 16.0511 106.084 15.2916 105.364 14.4112Z" fill="#FF102A"/>
<path d="M80.3703 2.76162C80.1651 2.44059 79.8771 2.20064 79.5495 2.04178C79.2218 1.92098 78.8512 1.84155 78.4408 1.84155C78.0718 1.84155 77.7011 1.92098 77.251 2.0815C76.8406 2.24201 76.4302 2.48196 76.0612 2.8427C75.8974 2.52167 75.6508 2.28173 75.3629 2.12287C75.0352 1.92264 74.7059 1.84321 74.2542 1.84321C73.4747 1.84321 72.6937 2.16424 71.9556 2.72356L71.7918 2.00372H70.3555V8.52857H72.0798V3.92328C72.285 3.72305 72.5315 3.60225 72.8178 3.44339C73.1057 3.32259 73.392 3.28288 73.6799 3.24316C74.0903 3.28288 74.3783 3.40368 74.5007 3.64362C74.6232 3.92328 74.6645 4.2046 74.6645 4.60506V8.52857H76.3888V4.16323V3.92328C76.594 3.72305 76.8406 3.60225 77.1285 3.44339C77.4165 3.32259 77.7027 3.28288 77.9907 3.24316C78.4011 3.28288 78.689 3.40368 78.8114 3.64362C78.9339 3.88357 79.0166 4.2046 78.9753 4.56369V8.52691H80.6996V4.08214C80.6979 3.52282 80.5754 3.08265 80.3703 2.76162Z" fill="#FF102A"/>
<path d="M33.9886 2.04178C33.6609 1.92098 33.2903 1.84155 32.9212 1.84155C32.5522 1.84155 32.1418 1.92098 31.7314 2.0815C31.3211 2.24201 30.9107 2.48196 30.5003 2.8427C30.3365 2.52167 30.0899 2.28173 29.802 2.12287C29.514 1.92264 29.145 1.84321 28.7346 1.84321C27.9138 1.84321 27.1741 2.16424 26.4361 2.72356L26.2309 2.00372H24.7946V8.52857H26.5188V3.92328C26.7654 3.72305 27.012 3.60225 27.2585 3.44339C27.5465 3.32259 27.8328 3.28288 28.1621 3.24316C28.5724 3.28288 28.819 3.40368 28.9415 3.64362C29.0639 3.92328 29.1467 4.2046 29.1053 4.60506V8.52857H30.8296V4.16323V3.92328C31.0348 3.72305 31.2813 3.60225 31.5693 3.44339C31.8572 3.32259 32.1435 3.28288 32.4728 3.24316C32.8832 3.28288 33.1297 3.40368 33.2522 3.64362C33.416 3.88357 33.4574 4.2046 33.4574 4.56369V8.52691H35.1403V4.08214C35.1403 3.52117 35.0179 3.08099 34.8127 2.76162C34.6042 2.44224 34.3576 2.2023 33.9886 2.04178Z" fill="#FF102A"/>
<path d="M18.8831 1.84155C17.8571 1.88127 17.0777 2.16258 16.4605 2.76162C16.1312 3.08265 15.8863 3.44174 15.7208 3.88191C15.557 4.32209 15.4742 4.80198 15.4742 5.32324C15.4742 5.84284 15.557 6.32439 15.7622 6.76456C15.8846 7.1253 16.0898 7.44468 16.3364 7.68462C16.4191 7.76405 16.4588 7.80542 16.5002 7.88485C17.1158 8.40446 17.8952 8.68577 18.8401 8.68577C19.8661 8.68577 20.6868 8.36474 21.3024 7.72434C21.6317 7.44468 21.8353 7.08393 22.0405 6.64376C22.1629 6.20359 22.2457 5.76341 22.2457 5.24215C22.2457 4.241 21.9577 3.40037 21.3438 2.79968C20.7712 2.16093 19.9091 1.88127 18.8831 1.84155ZM20.1143 6.80427C19.8263 7.16502 19.416 7.36525 18.8831 7.40496C18.3486 7.40496 17.9399 7.20473 17.6519 6.80427C17.364 6.44353 17.2416 5.92392 17.2416 5.28352C17.2416 4.64312 17.364 4.12186 17.6106 3.76277C17.8985 3.36231 18.3089 3.16208 18.8417 3.16208C19.3746 3.16208 19.785 3.36231 20.0729 3.72305C20.3608 4.12351 20.4833 4.64312 20.4833 5.28352C20.4833 5.88421 20.3608 6.40381 20.1143 6.80427Z" fill="#FF102A"/>
<path d="M67.564 6.72473V2.00195H65.8397V6.84553C65.7173 6.96633 65.5121 7.08548 65.3052 7.20627C65.0587 7.32708 64.8121 7.36679 64.5258 7.36679C64.1155 7.36679 63.8275 7.24599 63.6223 7.00605C63.4171 6.7661 63.3344 6.44507 63.3344 6.04461V2.00195H61.6101V6.1257C61.6101 6.84553 61.7739 7.36679 62.0205 7.72753C62.2671 8.08828 62.5533 8.36794 62.924 8.48874C63.2517 8.64925 63.581 8.68897 63.9086 8.68897C64.3604 8.68897 64.7294 8.60954 65.0984 8.44902C65.4277 8.28851 65.7553 8.12799 65.9605 7.88805L66.2898 8.52845H67.6848C67.6435 8.40766 67.6021 8.16771 67.6021 7.88805C67.564 7.60508 67.564 7.24599 67.564 6.72473Z" fill="#FF102A"/>
<path d="M58.3285 7.16525C58.1233 7.24468 57.9181 7.28605 57.6715 7.28605C57.2612 7.28605 57.056 7.04611 57.056 6.52485V3.24174H58.6561L59.1493 2.00064H57.056V0L55.3317 0.47989V7.16525C55.3317 7.60543 55.4541 7.96617 55.7007 8.24583C55.9886 8.52549 56.399 8.68601 57.0146 8.68601C57.3439 8.68601 57.7129 8.64629 58.1233 8.52549C58.5337 8.40469 58.9027 8.20446 59.2717 7.96452L58.82 6.92365C58.6975 7.00474 58.5337 7.08582 58.3285 7.16525Z" fill="#FF102A"/>
<path d="M51.4741 2.0815C51.1465 1.92098 50.8172 1.84155 50.4481 1.84155C49.9964 1.84155 49.586 1.92098 49.217 2.0815C48.8066 2.24201 48.4376 2.44224 48.0686 2.7219L47.9047 2.00207H46.427V8.52691H48.1513V3.963C48.4392 3.76277 48.6858 3.60225 48.9721 3.48311C49.26 3.36231 49.5877 3.28288 49.8756 3.28288C50.286 3.28288 50.5739 3.44339 50.6964 3.72305C50.8188 4.00271 50.9016 4.32374 50.8602 4.68449V8.52691H52.5845V4.20294C52.5845 3.60225 52.462 3.16208 52.2568 2.80133C52.0483 2.48196 51.8018 2.20064 51.4741 2.0815Z" fill="#FF102A"/>
<path d="M40.7613 1.84155C40.1043 1.84155 39.5715 2.00207 39.0783 2.32144C38.6266 2.64247 38.2989 3.04128 38.0524 3.56254C37.8058 4.04243 37.6833 4.64312 37.6833 5.28352C37.6833 5.88421 37.8058 6.40381 38.011 6.92507C38.2576 7.44468 38.6266 7.88651 39.1197 8.20588C39.6128 8.52691 40.2681 8.68577 41.0492 8.68577C41.4596 8.68577 41.87 8.64606 42.2804 8.52526C42.7321 8.40446 43.1011 8.20423 43.5115 7.96428L43.1011 6.8837C42.8132 7.04422 42.5269 7.16336 42.239 7.24445C41.9511 7.32388 41.6234 7.36525 41.3355 7.36525C40.8026 7.36525 40.3509 7.20473 39.9819 6.88536C39.6526 6.6057 39.4474 6.20524 39.4076 5.7237H43.7995V5.24381C43.7581 4.20294 43.5115 3.36231 42.9373 2.76162C42.4028 2.16093 41.6631 1.84155 40.7613 1.84155ZM39.3646 4.52397C39.3646 4.16323 39.4871 3.84385 39.7336 3.52282C39.9802 3.24316 40.3079 3.12236 40.7182 3.08265C41.1286 3.12236 41.4563 3.24316 41.6615 3.56254C41.908 3.8422 41.9891 4.16323 41.9891 4.52397H39.3646Z" fill="#FF102A"/>
<path d="M11.9055 2.04178C11.5778 1.92098 11.2071 1.84155 10.7968 1.84155C10.4277 1.84155 10.0571 1.92098 9.64668 2.0815C9.23629 2.24201 8.8259 2.48196 8.41551 2.76162C8.21032 2.44059 7.96375 2.20064 7.59473 2.04178C7.26709 1.92098 6.89641 1.84155 6.52739 1.84155C6.117 1.84155 5.74798 1.92098 5.3376 2.0815C4.92721 2.24201 4.51682 2.48196 4.10643 2.76162C3.90124 2.44059 3.65467 2.20064 3.28565 2.04178C2.958 1.92098 2.58733 1.84155 2.21831 1.84155C1.84929 1.84155 1.43891 1.92098 1.02852 2.0815C0.740583 2.2023 0.412934 2.36116 0.125 2.56139V3.92163C0.371564 3.7214 0.618128 3.6006 0.863037 3.44174C1.15097 3.32094 1.43725 3.24151 1.76655 3.24151C2.17694 3.28122 2.42351 3.40202 2.54596 3.64197C2.70979 3.88191 2.75116 4.20294 2.75116 4.56203V8.52526H4.43408V4.08214V3.92163C4.63927 3.7214 4.88584 3.6006 5.17377 3.44174C5.46171 3.32094 5.74799 3.24151 6.03592 3.24151C6.48768 3.28122 6.73424 3.40202 6.8567 3.64197C6.97915 3.88191 7.06189 4.20294 7.06189 4.56203V8.52526H8.74481V4.08214V3.92163C8.95001 3.7214 9.19657 3.6006 9.48451 3.44174C9.77244 3.32094 10.0587 3.24151 10.3467 3.24151C10.757 3.28122 11.045 3.40202 11.1674 3.64197C11.2899 3.88191 11.3726 4.20294 11.3313 4.56203V8.52526H13.0555V4.08214C13.0555 3.52117 12.9331 3.08099 12.7279 2.76162C12.5211 2.44224 12.2348 2.2023 11.9055 2.04178Z" fill="#FF102A"/>
</svg>
